HIERARCHY
ROOT Hips
{
	OFFSET 0.00000 0.00000 0.00000
	CHANNELS 6 Xposition Yposition Zposition Zrotation Yrotation Xrotation 
	JOINT LHipJoint
	{
		OFFSET 0 0 0
		CHANNELS 3 Zrotation Yrotation Xrotation
		JOINT LeftUpLeg
		{
			OFFSET 1.56741 -1.82513 0.67319
			CHANNELS 3 Zrotation Yrotation Xrotation
			JOINT LeftLeg
			{
				OFFSET 2.35708 -6.47604 0.00000
				CHANNELS 3 Zrotation Yrotation Xrotation
				JOINT LeftFoot
				{
					OFFSET 2.70636 -7.43567 0.00000
					CHANNELS 3 Zrotation Yrotation Xrotation
					JOINT LeftToeBase
					{
						OFFSET 0.20427 -0.56122 2.08535
						CHANNELS 3 Zrotation Yrotation Xrotation
						End Site
						{
							OFFSET 0.00000 -0.00000 1.08535
						}
					}
				}
			}
		}
	}
	JOINT RHipJoint
	{
		OFFSET 0 0 0
		CHANNELS 3 Zrotation Yrotation Xrotation
		JOINT RightUpLeg
		{
			OFFSET -1.51422 -1.82513 0.67319
			CHANNELS 3 Zrotation Yrotation Xrotation
			JOINT RightLeg
			{
				OFFSET -2.48824 -6.83638 0.00000
				CHANNELS 3 Zrotation Yrotation Xrotation
				JOINT RightFoot
				{
					OFFSET -2.70033 -7.41909 0.00000
					CHANNELS 3 Zrotation Yrotation Xrotation
					JOINT RightToeBase
					{
						OFFSET -0.19750 -0.54263 2.22151
						CHANNELS 3 Zrotation Yrotation Xrotation
						End Site
						{
							OFFSET -0.00000 -0.00000 1.14915
						}
					}
				}
			}
		}
	}
	JOINT LowerBack
	{
		OFFSET 0 0 0
		CHANNELS 3 Zrotation Yrotation Xrotation
		JOINT Spine
		{
			OFFSET -0.01567 2.12874 -0.15842
			CHANNELS 3 Zrotation Yrotation Xrotation
			JOINT Spine1
			{
				OFFSET 0.06098 2.13326 -0.01043
				CHANNELS 3 Zrotation Yrotation Xrotation
				JOINT Neck
				{
					OFFSET 0 0 0
					CHANNELS 3 Zrotation Yrotation Xrotation
					JOINT Neck1
					{
						OFFSET -0.05040 1.78432 0.13387
						CHANNELS 3 Zrotation Yrotation Xrotation
						JOINT Head
						{
							OFFSET -0.00180 1.76880 -0.33303
							CHANNELS 3 Zrotation Yrotation Xrotation
							End Site
							{
								OFFSET 0.00734 1.81249 -0.12719
							}
						}
					}
				}
				JOINT LeftShoulder
				{
					OFFSET 0 0 0
					CHANNELS 3 Zrotation Yrotation Xrotation
					JOINT LeftArm
					{
						OFFSET 3.72199 0.94188 -0.54317
						CHANNELS 3 Zrotation Yrotation Xrotation
						JOINT LeftForeArm
						{
							OFFSET 5.14601 -0.00000 0.00000
							CHANNELS 3 Zrotation Yrotation Xrotation
							JOINT LeftHand
							{
								OFFSET 3.64452 -0.00000 -0.00000
								CHANNELS 3 Zrotation Yrotation Xrotation
								JOINT LeftFingerBase
								{
									OFFSET 0 0 0
									CHANNELS 3 Zrotation Yrotation Xrotation
									JOINT LeftHandIndex1
									{
										OFFSET 0.56228 -0.00000 0.00000
										CHANNELS 3 Zrotation Yrotation Xrotation
										End Site
										{
											OFFSET 0.45332 -0.00000 0.00000
										}
									}
								}
								JOINT LThumb
								{
									OFFSET 0 0 0
									CHANNELS 3 Zrotation Yrotation Xrotation
									End Site
									{
										OFFSET 0.46025 -0.00000 0.46025
									}
								}
							}
						}
					}
				}
				JOINT RightShoulder
				{
					OFFSET 0 0 0
					CHANNELS 3 Zrotation Yrotation Xrotation
					JOINT RightArm
					{
						OFFSET -3.30253 1.22679 -0.46941
						CHANNELS 3 Zrotation Yrotation Xrotation
						JOINT RightForeArm
						{
							OFFSET -5.33913 -0.00000 0.00000
							CHANNELS 3 Zrotation Yrotation Xrotation
							JOINT RightHand
							{
								OFFSET -3.56478 -0.00000 -0.00000
								CHANNELS 3 Zrotation Yrotation Xrotation
								JOINT RightFingerBase
								{
									OFFSET 0 0 0
									CHANNELS 3 Zrotation Yrotation Xrotation
									JOINT RightHandIndex1
									{
										OFFSET -0.85747 -0.00000 0.00000
										CHANNELS 3 Zrotation Yrotation Xrotation
										End Site
										{
											OFFSET -0.69132 -0.00000 0.00000
										}
									}
								}
								JOINT RThumb
								{
									OFFSET 0 0 0
									CHANNELS 3 Zrotation Yrotation Xrotation
									End Site
									{
										OFFSET -0.70187 -0.00000 0.70187
									}
								}
							}
						}
					}
				}
			}
		}
	}
}
MOTION
Frames: 11
Frame Time: 0.0357143
0.00 0.00 0.00 0 0 0 0 0 0 -21 0 0 0 0 0 0 0 0 0 0 0 0 0 0 21 0 0 0 0 0 0 0 0 0 0 0 0 0 0 0 0 0 0 0 0 0 0 -16 0 0 21 0 0 11 0 0 0 -8 0 0 0 0 0 0 0 0 0 0 0 0 0 0 0 0 0 0 0 0 8 0 0 0 0 0 0 0 0 0 0 0 0 0 0 0 0 0
0.00 0.00 0.00 -0.7873 -6.2292 5.8322 0.0000 0.0000 0.0000 -18.5903 -8.3675 -7.5726 1.5055 7.7496 21.9560 0.5439 3.6714 -15.7558 0.6276 -5.0694 -14.1067 0.0000 0.0000 0.0000 26.2075 7.0375 -13.7852 -2.9859 -10.6721 31.1820 -0.6570 -7.0323 -19.4560 -0.6005 -4.9606 13.7963 -1.1521 -2.1084 2.7620 3.2737 -2.7892 -0.7225 4.1421 -1.3607 -2.0726 -9.0441 -10.6400 -8.2131 5.3242 -13.8581 10.5469 1.9852 -6.8192 5.5201 -0.0000 0.0000 0.0000 -91.2646 -2.6437 14.1597 16.5994 -26.3266 -3.9080 -0.0000 -0.0000 7.1055 7.9234 38.7682 4.9807 -7.1250 0.0000 -0.0000 -35.3397 65.7031 -18.6892 -0.0000 0.0000 0.0000 82.4757 11.1492 4.5360 -15.4872 24.8204 -3.4279 0.0000 0.0000 23.3988 -5.9808 7.3170 -0.7644 7.1250 -0.0000 -0.0000 15.1192 -22.6801 8.4085
0.00 0.00 0.00 -1.5617 -11.2590 2.4092 0.0000 0.0000 0.0000 -17.3213 -7.1942 -12.0172 4.2373 12.4696 37.4141 0.8568 3.9574 -19.3510 0.5445 -4.7274 -13.1327 0.0000 0.0000 0.0000 27.7160 8.8683 -13.5366 -4.6962 -13.0333 39.4931 -1.1109 -4.9316 -22.2614 -0.3567 -3.8372 10.6191 -0.5240 -2.7252 7.4595 3.8225 -3.5719 1.5677 4.5818 -1.7811 -2.2764 -9.3743 -8.9283 -8.5323 4.2050 -11.3392 11.2905 1.9112 -5.6726 5.5802 -0.0000 0.0000 0.0000 -90.2629 -0.9988 8.8933 14.0257 -22.7715 -2.8381 -0.0000 -0.0000 8.5128 13.3935 29.2075 6.6277 -7.1250 0.0000 -0.0000 -19.7889 58.7546 -6.8231 -0.0000 0.0000 0.0000 87.0637 -0.4500 -1.5981 -15.0591 24.2283 -3.2501 0.0000 0.0000 18.4207 -11.6588 4.4139 -0.9098 7.1250 -0.0000 -0.0000 11.2457 -25.4557 5.4198
0.00 0.00 0.00 -2.6873 -16.7271 4.9579 0.0000 0.0000 0.0000 -12.9112 -4.4418 -23.5696 8.1593 16.2352 53.1346 0.2239 1.0049 -9.3620 1.9636 -8.7898 -25.1400 0.0000 0.0000 0.0000 29.8302 9.2962 -10.8419 -3.5020 -11.4664 33.8695 -1.1307 -2.2386 -21.0092 -0.7103 -5.3862 15.0135 0.9008 -2.4636 7.2788 4.4122 -3.0962 1.2463 4.3560 -1.5478 -2.5905 -7.1652 -4.1985 -13.0457 3.1305 -4.8500 15.8481 1.6970 -2.4837 7.2675 -0.0000 0.0000 0.0000 -90.5633 -3.4970 14.0412 18.4232 -28.6957 -4.7507 -0.0000 -0.0000 6.0458 12.0956 27.3633 5.6254 -7.1250 0.0000 -0.0000 -19.8736 56.7457 -5.8816 -0.0000 0.0000 0.0000 85.6508 1.7410 1.9148 -15.6133 24.9935 -3.4810 0.0000 0.0000 17.4822 -12.4461 4.3518 -0.9595 7.1250 -0.0000 -0.0000 10.6644 -25.5076 5.1167
0.00 0.00 0.00 -6.0819 -10.2579 6.3074 0.0000 0.0000 0.0000 -6.0678 -15.5751 -25.4304 0.1439 2.4446 6.7362 0.0284 4.1168 -6.9048 1.0153 -6.4108 -17.9812 0.0000 0.0000 0.0000 34.2002 2.6293 -1.8934 -1.7229 -8.2633 23.5166 -0.8088 -4.6231 -19.2787 -0.1506 -2.5010 6.8925 4.7185 2.9554 6.5541 3.1269 4.3748 0.4984 0.1994 2.1270 -3.0488 -6.0198 -0.2498 -15.2361 -1.2774 1.4321 19.6813 0.7337 0.0857 8.6512 0.0000 0.0000 0.0000 -88.3193 4.7382 8.4848 15.5839 -24.9532 -3.4686 -0.0000 -0.0000 3.9639 13.8535 30.5675 7.1485 -7.1250 0.0000 -0.0000 -20.3180 60.1309 -7.6890 0.0000 0.0000 0.0000 87.1307 -0.4753 19.2736 -15.0332 24.1924 -3.2395 0.0000 0.0000 20.2857 -12.7826 4.3207 -0.9792 7.1250 -0.0000 -0.0000 10.4156 -25.5342 4.9869
0.00 0.00 0.00 -3.4182 3.6650 6.7496 0.0000 0.0000 0.0000 -17.2466 -9.8088 -30.7357 2.5262 9.8854 28.6064 0.0495 -4.7222 -4.8320 0.4777 -4.4324 -12.2963 0.0000 0.0000 0.0000 31.4595 -4.2970 -0.8088 -3.9937 -12.1520 36.2718 0.2336 -8.6541 -4.7213 -0.0084 -0.5935 1.6308 1.0088 2.9908 6.2178 0.1725 4.0500 1.0508 -0.7136 2.0097 -2.3384 -6.7696 -0.8145 -14.4858 0.3970 0.4363 19.8136 1.3087 -0.2516 8.5725 -0.0000 -0.0000 0.0000 -90.2315 5.6338 7.1653 15.2224 -24.4551 -3.3175 -0.0000 -0.0000 3.2564 12.7284 25.3920 5.5324 -7.1250 0.0000 -0.0000 -18.0532 55.0056 -4.5454 -0.0000 -0.0000 0.0000 87.8965 -0.6087 23.5620 -19.5161 30.0549 -5.2868 0.0000 0.0000 18.1381 -13.6482 4.2231 -1.0244 7.1250 -0.0000 -0.0000 9.7761 -25.6200 4.6520
0.00 0.00 0.00 -1.8886 5.7966 3.9427 0.0000 0.0000 0.0000 -20.2976 -9.5414 -28.4267 3.9220 12.0559 35.9299 0.1103 -6.7563 -7.0854 0.0399 -1.2890 -3.5443 0.0000 0.0000 0.0000 26.7946 -8.6363 -7.2906 -7.9429 -16.0771 52.3569 -0.1803 -7.0831 8.4348 -0.4979 -4.5237 12.5548 0.2163 2.6504 7.2022 -0.0559 3.5385 1.8360 -0.4924 1.7624 -2.1194 -6.7461 -0.3328 -12.4530 0.5723 0.9220 20.6431 1.4201 -0.0145 8.4620 0.0000 -0.0000 0.0000 -89.8657 3.2818 9.7314 15.0047 -24.1526 -3.2279 -0.0000 -0.0000 3.4874 13.7109 25.2422 5.9398 -7.1250 0.0000 -0.0000 -16.9874 55.0517 -4.2843 0.0000 -0.0000 0.0000 87.3580 -1.9900 24.0041 -20.8586 31.6630 -5.9756 0.0000 0.0000 17.7666 -11.2667 2.8276 -0.5631 7.1250 -0.0000 -0.0000 11.6828 -27.0447 5.1943
0.00 0.00 0.00 0.4662 5.3267 1.7632 0.0000 0.0000 0.0000 -23.9096 -8.6610 -25.2699 4.9223 13.2957 40.4858 0.4630 -6.5284 -12.2638 0.0709 -1.7175 -4.7254 0.0000 0.0000 0.0000 20.6240 -9.0265 -15.0121 -13.2087 -18.8562 69.7726 -0.5362 -7.0679 13.2107 -1.7460 -8.3156 23.6767 -2.0691 2.7466 8.4790 -0.0723 3.4741 2.5845 0.7279 1.7332 -2.1876 -6.5668 0.2244 -12.5107 0.2498 1.7575 21.5168 1.3806 0.3384 8.7432 -0.0000 -0.0000 0.0000 -90.3004 -0.1727 11.0201 14.4043 -23.3098 -2.9862 -0.0000 -0.0000 5.2803 17.1007 23.0113 6.8578 -7.1250 0.0000 -0.0000 -12.4966 53.5045 -2.6459 -0.0000 -0.0000 0.0000 86.4302 -0.6422 23.3837 -21.0238 31.8561 -6.0625 0.0000 0.0000 17.2197 -14.1679 4.3594 -1.0993 7.1250 -0.0000 -0.0000 9.3781 -25.4730 4.4901
0.00 0.00 0.00 2.9380 3.2151 0.7977 0.0000 0.0000 0.0000 -27.9901 -6.9644 -19.0545 4.7305 13.0737 39.6450 0.8866 -4.3195 -16.8656 0.0128 -0.7300 -2.0061 0.0000 0.0000 0.0000 13.9211 -4.1829 -30.0941 -17.5522 -19.8557 82.8265 0.0107 -2.2843 -2.2804 -0.4758 -4.4235 12.2714 -3.6778 2.3288 9.1073 -0.1427 2.7552 2.6605 1.6082 1.3800 -2.5036 -5.9441 1.3893 -12.9516 0.4629 3.2325 22.2564 1.5254 1.0790 9.0241 -0.0000 0.0000 0.0000 -90.8417 -5.1468 12.0264 14.0888 -22.8616 -2.8625 -0.0000 -0.0000 5.3791 19.6575 26.6905 9.1155 -7.1250 0.0000 -0.0000 -11.6276 57.6958 -3.6467 -0.0000 0.0000 0.0000 88.0423 1.3515 17.0953 -19.8304 30.4375 -5.4452 0.0000 0.0000 15.3891 -15.8543 1.5036 -0.4270 7.1250 -0.0000 -0.0000 8.2990 -28.3790 3.3897
0.00 0.00 0.00 3.7933 4.0686 1.6614 0.0000 0.0000 0.0000 -29.9909 -5.8922 -10.9109 2.7502 10.2793 29.8858 0.6308 -1.3141 -14.6109 0.2977 -3.5082 -9.6969 0.0000 0.0000 0.0000 12.9704 0.7227 -36.4476 -12.3715 -18.5433 67.1615 -0.3153 -1.9438 -11.4996 -0.0130 -0.7355 2.0214 -4.4597 0.8142 8.3403 0.5403 0.7268 2.3410 2.9936 0.3745 -2.3093 -5.4859 2.4934 -13.8376 0.9150 4.6254 22.9208 1.7876 1.7915 9.3632 -0.0000 0.0000 0.0000 -90.6115 -7.1258 18.5868 15.3892 -24.6854 -3.3868 -0.0000 -0.0000 5.0453 15.2765 29.7259 7.7127 -7.1250 0.0000 -0.0000 -18.1807 59.6712 -6.6455 -0.0000 0.0000 0.0000 87.6732 0.1242 17.4410 -20.1144 30.7799 -5.5898 0.0000 0.0000 15.4079 -15.2334 1.9283 -0.5250 7.1250 -0.0000 -0.0000 8.7440 -27.9441 3.6663
0.00 0.00 0.00 6.4119 7.1691 4.4443 0.0000 0.0000 0.0000 -30.4082 3.6034 5.4080 0.3311 3.6980 10.2286 0.4291 -6.9764 -11.9170 0.3474 -3.7873 -10.4790 0.0000 0.0000 0.0000 7.2913 15.2523 -33.4333 -2.0931 -9.0574 25.9752 -0.0074 -2.9173 -4.5645 -0.0293 -1.1043 3.0357 -8.6080 -1.0223 7.7996 1.8863 -1.9739 2.3150 7.0090 -0.9954 -1.5932 -2.3951 5.5897 -15.1303 0.9859 8.1033 19.7590 1.6598 3.7436 8.5058 -0.0000 0.0000 0.0000 -83.1824 -13.2213 38.7942 25.4826 -36.6932 -8.5766 -0.0000 -0.0000 3.8711 16.7122 23.6695 6.8731 -7.1250 0.0000 -0.0000 -13.1819 54.0870 -2.9839 -0.0000 0.0000 0.0000 85.2401 -3.7657 13.8331 -20.9761 31.8004 -6.0373 0.0000 0.0000 15.6228 -15.6344 4.6598 -1.3024 7.1250 -0.0000 -0.0000 8.2640 -25.1372 4.0106
